<svg width="241" height="321" viewBox="0 0 241 321" fill="none" xmlns="http://www.w3.org/2000/svg">
<g clip-path="url(#clip0_169_2)">
<path d="M215.046 9.96739C215.026 2.95625 222.675 -1.38448 228.684 2.22864L236.638 7.01178C239.345 8.63932 241 11.5664 241 14.7247V333C241 337.971 236.971 342 232 342H224.974C220.014 342 215.988 337.986 215.974 333.026L215.046 9.96739Z" fill="#DF9452"/>
<mask id="path-2-inside-1_169_2" fill="white">
<path d="M0 12C0 5.37258 5.37258 0 12 0H222C228.627 0 234 5.37258 234 12V330C234 336.627 228.627 342 222 342H12C5.37258 342 0 336.627 0 330V12Z"/>
</mask>
<path d="M0 12C0 5.37258 5.37258 0 12 0H222C228.627 0 234 5.37258 234 12V330C234 336.627 228.627 342 222 342H12C5.37258 342 0 336.627 0 330V12Z" fill="#DF9452"/>
<path d="M0 0H234H0ZM234 342H0H234ZM0 342V0V342ZM222 0C229.18 0 235 5.8203 235 13V329C235 336.18 229.18 342 222 342C228.075 342 233 336.627 233 330V12C233 5.37258 228.075 0 222 0Z" fill="black" mask="url(#path-2-inside-1_169_2)"/>
<path d="M117 108.376C117 107.135 118.118 106.194 119.341 106.406L180.329 116.968C181.293 117.135 181.995 117.975 181.988 118.954L180.767 285.701C180.758 286.916 179.677 287.842 178.476 287.665L118.709 278.87C117.727 278.726 117 277.883 117 276.891V108.376Z" fill="black"/>
<path d="M121 113.241C121 112.603 121.589 112.128 122.212 112.264L132.212 114.437C132.672 114.537 133 114.944 133 115.415V125.795C133 126.421 132.431 126.894 131.816 126.778L121.816 124.906C121.343 124.818 121 124.405 121 123.923V113.241Z" fill="#434343"/>
<path d="M151 118.241C151 117.603 151.589 117.128 152.212 117.264L162.212 119.437C162.672 119.537 163 119.944 163 120.415V130.795C163 131.421 162.431 131.894 161.816 131.778L151.816 129.906C151.343 129.818 151 129.405 151 128.923V118.241Z" fill="#434343"/>
<path d="M150 135.223C150 134.591 150.579 134.118 151.199 134.243L161.199 136.272C161.665 136.367 162 136.777 162 137.252V146.81C162 147.431 161.44 147.902 160.828 147.795L150.828 146.048C150.349 145.964 150 145.549 150 145.063V135.223Z" fill="#434343"/>
<path d="M150 151.223C150 150.591 150.579 150.118 151.199 150.243L161.199 152.272C161.665 152.367 162 152.777 162 153.252V162.81C162 163.431 161.44 163.902 160.828 163.795L150.828 162.048C150.349 161.964 150 161.549 150 161.063V151.223Z" fill="#434343"/>
<path d="M150 167.223C150 166.591 150.579 166.118 151.199 166.243L161.199 168.272C161.665 168.367 162 168.777 162 169.252V178.81C162 179.431 161.44 179.902 160.828 179.795L150.828 178.048C150.349 177.964 150 177.549 150 177.063V167.223Z" fill="#434343"/>
<path d="M150 183.241C150 182.603 150.589 182.128 151.212 182.264L161.212 184.437C161.672 184.537 162 184.944 162 185.415V195.795C162 196.421 161.431 196.894 160.816 196.778L150.816 194.906C150.343 194.818 150 194.405 150 193.923V183.241Z" fill="#434343"/>
<path d="M150 201.223C150 200.591 150.579 200.118 151.199 200.243L161.199 202.272C161.665 202.367 162 202.777 162 203.252V212.81C162 213.431 161.44 213.902 160.828 213.795L150.828 212.048C150.349 211.964 150 211.549 150 211.063V201.223Z" fill="#434343"/>
<path d="M150 250.223C150 249.591 150.579 249.118 151.199 249.243L161.199 251.272C161.665 251.367 162 251.777 162 252.252V261.81C162 262.431 161.44 262.902 160.828 262.795L150.828 261.048C150.349 260.964 150 260.549 150 260.063V250.223Z" fill="#434343"/>
<path d="M150 217.223C150 216.591 150.579 216.118 151.199 216.243L161.199 218.272C161.665 218.367 162 218.777 162 219.252V228.81C162 229.431 161.44 229.902 160.828 229.795L150.828 228.048C150.349 227.964 150 227.549 150 227.063V217.223Z" fill="#434343"/>
<path d="M150 233.241C150 232.603 150.589 232.128 151.212 232.264L161.212 234.437C161.672 234.537 162 234.944 162 235.415V245.795C162 246.421 161.431 246.894 160.816 246.778L150.816 244.906C150.343 244.818 150 244.405 150 243.923V233.241Z" fill="#434343"/>
<path d="M150 266.223C150 265.591 150.579 265.118 151.199 265.243L161.199 267.272C161.665 267.367 162 267.777 162 268.252V277.81C162 278.431 161.44 278.902 160.828 278.795L150.828 277.048C150.349 276.964 150 276.549 150 276.063V266.223Z" fill="#434343"/>
<path d="M166 121.223C166 120.591 166.579 120.118 167.199 120.243L177.199 122.272C177.665 122.367 178 122.777 178 123.252V132.81C178 133.431 177.44 133.902 176.828 133.795L166.828 132.048C166.349 131.964 166 131.549 166 131.063V121.223Z" fill="#434343"/>
<path d="M165 137.223C165 136.591 165.579 136.118 166.199 136.243L176.199 138.272C176.665 138.367 177 138.777 177 139.252V148.81C177 149.431 176.44 149.902 175.828 149.795L165.828 148.048C165.349 147.964 165 147.549 165 147.063V137.223Z" fill="#434343"/>
<path d="M165 153.241C165 152.603 165.589 152.128 166.212 152.264L176.212 154.437C176.672 154.537 177 154.944 177 155.415V165.795C177 166.421 176.431 166.894 175.816 166.778L165.816 164.906C165.343 164.818 165 164.405 165 163.923V153.241Z" fill="#434343"/>
<path d="M165 170.223C165 169.591 165.579 169.118 166.199 169.243L176.199 171.272C176.665 171.367 177 171.777 177 172.252V181.81C177 182.431 176.44 182.902 175.828 182.795L165.828 181.048C165.349 180.964 165 180.549 165 180.063V170.223Z" fill="#434343"/>
<path d="M165 186.223C165 185.591 165.579 185.118 166.199 185.243L176.199 187.272C176.665 187.367 177 187.777 177 188.252V197.81C177 198.431 176.44 198.902 175.828 198.795L165.828 197.048C165.349 196.964 165 196.549 165 196.063V186.223Z" fill="#434343"/>
<path d="M165 252.223C165 251.591 165.579 251.118 166.199 251.243L176.199 253.272C176.665 253.367 177 253.777 177 254.252V263.81C177 264.431 176.44 264.902 175.828 264.795L165.828 263.048C165.349 262.964 165 262.549 165 262.063V252.223Z" fill="#434343"/>
<path d="M165 203.23C165 202.596 165.583 202.122 166.204 202.252L176.204 204.34C176.668 204.437 177 204.846 177 205.319V247.831C177 248.445 176.452 248.914 175.845 248.819L165.845 247.252C165.359 247.176 165 246.757 165 246.264V203.23Z" fill="#434343"/>
<path d="M165 268.241C165 267.603 165.589 267.128 166.212 267.264L176.212 269.437C176.672 269.537 177 269.944 177 270.415V280.795C177 281.421 176.431 281.894 175.816 281.778L165.816 279.906C165.343 279.818 165 279.405 165 278.923V268.241Z" fill="#434343"/>
<path d="M120 130.223C120 129.591 120.579 129.118 121.199 129.243L131.199 131.272C131.665 131.367 132 131.777 132 132.252V141.81C132 142.431 131.44 142.902 130.828 142.795L120.828 141.048C120.349 140.964 120 140.549 120 140.063V130.223Z" fill="#434343"/>
<path d="M120 146.223C120 145.591 120.579 145.118 121.199 145.243L131.199 147.272C131.665 147.367 132 147.777 132 148.252V157.81C132 158.431 131.44 158.902 130.828 158.795L120.828 157.048C120.349 156.964 120 156.549 120 156.063V146.223Z" fill="#434343"/>
<path d="M120 162.223C120 161.591 120.579 161.118 121.199 161.243L131.199 163.272C131.665 163.367 132 163.777 132 164.252V173.81C132 174.431 131.44 174.902 130.828 174.795L120.828 173.048C120.349 172.964 120 172.549 120 172.063V162.223Z" fill="#434343"/>
<path d="M120 178.241C120 177.603 120.589 177.128 121.212 177.264L131.212 179.437C131.672 179.537 132 179.944 132 180.415V190.795C132 191.421 131.431 191.894 130.816 191.778L120.816 189.906C120.343 189.818 120 189.405 120 188.923V178.241Z" fill="#434343"/>
<path d="M120 196.223C120 195.591 120.579 195.118 121.199 195.243L131.199 197.272C131.665 197.367 132 197.777 132 198.252V207.81C132 208.431 131.44 208.902 130.828 208.795L120.828 207.048C120.349 206.964 120 206.549 120 206.063V196.223Z" fill="#434343"/>
<path d="M120 212.223C120 211.591 120.579 211.118 121.199 211.243L131.199 213.272C131.665 213.367 132 213.777 132 214.252V223.81C132 224.431 131.44 224.902 130.828 224.795L120.828 223.048C120.349 222.964 120 222.549 120 222.063V212.223Z" fill="#434343"/>
<path d="M120 228.241C120 227.603 120.589 227.128 121.212 227.264L131.212 229.437C131.672 229.537 132 229.944 132 230.415V240.795C132 241.421 131.431 241.894 130.816 241.778L120.816 239.906C120.343 239.818 120 239.405 120 238.923V228.241Z" fill="#434343"/>
<path d="M120 245.223C120 244.591 120.579 244.118 121.199 244.243L131.199 246.272C131.665 246.367 132 246.777 132 247.252V256.81C132 257.431 131.44 257.902 130.828 257.795L120.828 256.048C120.349 255.964 120 255.549 120 255.063V245.223Z" fill="#434343"/>
<path d="M120 261.223C120 260.591 120.579 260.118 121.199 260.243L131.199 262.272C131.665 262.367 132 262.777 132 263.252V272.81C132 273.431 131.44 273.902 130.828 273.795L120.828 272.048C120.349 271.964 120 271.549 120 271.063V261.223Z" fill="#434343"/>
<path d="M136 116.223C136 115.591 136.579 115.118 137.199 115.243L147.199 117.272C147.665 117.367 148 117.777 148 118.252V127.81C148 128.431 147.44 128.902 146.828 128.795L136.828 127.048C136.349 126.964 136 126.549 136 126.063V116.223Z" fill="#434343"/>
<path d="M135 132.223C135 131.591 135.579 131.118 136.199 131.243L146.199 133.272C146.665 133.367 147 133.777 147 134.252V143.81C147 144.431 146.44 144.902 145.828 144.795L135.828 143.048C135.349 142.964 135 142.549 135 142.063V132.223Z" fill="#434343"/>
<path d="M135 148.241C135 147.603 135.589 147.128 136.212 147.264L146.212 149.437C146.672 149.537 147 149.944 147 150.415V160.795C147 161.421 146.431 161.894 145.816 161.778L135.816 159.906C135.343 159.818 135 159.405 135 158.923V148.241Z" fill="#434343"/>
<path d="M135 165.223C135 164.591 135.579 164.118 136.199 164.243L146.199 166.272C146.665 166.367 147 166.777 147 167.252V176.81C147 177.431 146.44 177.902 145.828 177.795L135.828 176.048C135.349 175.964 135 175.549 135 175.063V165.223Z" fill="#434343"/>
<path d="M135 181.223C135 180.591 135.579 180.118 136.199 180.243L146.199 182.272C146.665 182.367 147 182.777 147 183.252V192.81C147 193.431 146.44 193.902 145.828 193.795L135.828 192.048C135.349 191.964 135 191.549 135 191.063V181.223Z" fill="#434343"/>
<path d="M135 198.241C135 197.603 135.589 197.128 136.212 197.264L146.212 199.437C146.672 199.537 147 199.944 147 200.415V210.795C147 211.421 146.431 211.894 145.816 211.778L135.816 209.906C135.343 209.818 135 209.405 135 208.923V198.241Z" fill="#434343"/>
<path d="M135 215.223C135 214.591 135.579 214.118 136.199 214.243L146.199 216.272C146.665 216.367 147 216.777 147 217.252V226.81C147 227.431 146.44 227.902 145.828 227.795L135.828 226.048C135.349 225.964 135 225.549 135 225.063V215.223Z" fill="#434343"/>
<path d="M135 247.223C135 246.591 135.579 246.118 136.199 246.243L146.199 248.272C146.665 248.367 147 248.777 147 249.252V258.81C147 259.431 146.44 259.902 145.828 259.795L135.828 258.048C135.349 257.964 135 257.549 135 257.063V247.223Z" fill="#434343"/>
<path d="M135 231.223C135 230.591 135.579 230.118 136.199 230.243L146.199 232.272C146.665 232.367 147 232.777 147 233.252V242.81C147 243.431 146.44 243.902 145.828 243.795L135.828 242.048C135.349 241.964 135 241.549 135 241.063V231.223Z" fill="#434343"/>
<path d="M135 263.241C135 262.603 135.589 262.128 136.212 262.264L146.212 264.437C146.672 264.537 147 264.944 147 265.415V275.795C147 276.421 146.431 276.894 145.816 276.778L135.816 274.906C135.343 274.818 135 274.405 135 273.923V263.241Z" fill="#434343"/>
<ellipse cx="78" cy="188" rx="22" ry="42" fill="black"/>
<path d="M15 57L79 93.3373V265L15 232.422V57Z" fill="#282828"/>
<path d="M10 58.2553L15 57V232.745L10 234L10 58.2553Z" fill="black"/>
<path d="M12.8491 230.938L78.8573 264.813L76.6416 267.3L10.0001 233.502L12.8491 230.938Z" fill="black"/>
<g clip-path="url(#clip1_169_2)">
<rect x="149" y="81" width="25" height="18" rx="9" fill="black"/>
<rect x="156" y="89" width="4" height="2" rx="1" fill="#D9D9D9"/>
</g>
<g clip-path="url(#clip2_169_2)">
<rect width="46" height="34" transform="translate(187.619 80.6562) rotate(-167.556)" fill="white"/>
<path d="M149.725 68.6865C149.894 67.9205 151.503 60.6319 153.722 49.9667C154.42 46.1955 154.25 45.7562 154.296 45.2248C154.342 44.6934 154.611 44.0832 155.36 43.153" stroke="black" stroke-width="2" stroke-linecap="round"/>
<path d="M149.725 68.6865C149.894 67.9205 151.503 60.6319 153.722 49.9667C154.42 46.1955 154.25 45.7562 154.296 45.2248C154.342 44.6934 154.611 44.0832 155.36 43.153" stroke="black" stroke-width="2" stroke-linecap="round"/>
<path d="M154.899 69.3396C155.068 68.5736 156.676 61.2849 158.895 50.6198C159.594 46.8486 159.423 46.4093 159.469 45.8779C159.515 45.3464 159.784 44.7363 160.533 43.8061" stroke="black" stroke-width="2" stroke-linecap="round"/>
<path d="M161.139 70.7168C161.307 69.9551 162.906 62.7077 165.031 52.0845C165.643 48.3165 165.308 47.8432 165.31 47.3051C165.312 46.767 165.662 46.1785 166.742 45.3276" stroke="black" stroke-width="2" stroke-linecap="round"/>
<path d="M166.998 72.0095C167.166 71.2478 168.766 64.0004 170.89 53.3772C171.502 49.6092 171.167 49.1359 171.169 48.5978C171.171 48.0597 171.521 47.4712 172.601 46.6203" stroke="black" stroke-width="2" stroke-linecap="round"/>
<path d="M172.857 73.3025C173.025 72.5408 174.625 65.2933 176.749 54.6702C177.361 50.9021 177.026 50.4289 177.028 49.8908C177.03 49.3527 177.38 48.7642 178.46 47.9133" stroke="black" stroke-width="2" stroke-linecap="round"/>
<path d="M179.693 74.8108C179.861 74.0491 181.46 66.8016 183.585 56.1785C184.196 52.4104 183.861 51.9372 183.864 51.3991C183.866 50.861 184.215 50.2725 185.295 49.4216" stroke="black" stroke-width="2" stroke-linecap="round"/>
</g>
<g clip-path="url(#clip3_169_2)">
<rect width="46" height="34" transform="translate(181.837 66.4448) rotate(-150)" fill="white"/>
<path d="M149.319 43.6023C149.711 42.923 153.443 36.459 158.776 26.96C160.579 23.5752 160.549 23.1048 160.753 22.6121C160.958 22.1194 161.398 21.6186 162.392 20.9577" stroke="black" stroke-width="2" stroke-linecap="round"/>
<path d="M149.319 43.6023C149.711 42.923 153.443 36.459 158.776 26.96C160.579 23.5752 160.549 23.1048 160.753 22.6121C160.958 22.1194 161.398 21.6186 162.392 20.9577" stroke="black" stroke-width="2" stroke-linecap="round"/>
<path d="M154.054 45.7854C154.446 45.1061 158.178 38.6421 163.511 29.1432C165.315 25.7583 165.284 25.2879 165.489 24.7952C165.693 24.3025 166.133 23.8017 167.128 23.1408" stroke="black" stroke-width="2" stroke-linecap="round"/>
<path d="M159.588 48.9807C159.978 48.3052 163.689 41.8777 168.919 32.3902C170.639 28.9822 170.463 28.4299 170.627 27.9176C170.791 27.4052 171.302 26.9496 172.589 26.4641" stroke="black" stroke-width="2" stroke-linecap="round"/>
<path d="M164.785 51.9807C165.175 51.3052 168.885 44.8777 174.115 35.3902C175.835 31.9822 175.659 31.4299 175.823 30.9176C175.987 30.4052 176.498 29.9496 177.785 29.4641" stroke="black" stroke-width="2" stroke-linecap="round"/>
<path d="M169.981 54.9807C170.371 54.3052 174.082 47.8777 179.312 38.3902C181.031 34.9822 180.855 34.4299 181.019 33.9176C181.184 33.4052 181.694 32.9496 182.981 32.4641" stroke="black" stroke-width="2" stroke-linecap="round"/>
<path d="M176.043 58.4807C176.433 57.8052 180.144 51.3777 185.374 41.8902C187.094 38.4822 186.917 37.9299 187.081 37.4176C187.246 36.9052 187.757 36.4496 189.043 35.9641" stroke="black" stroke-width="2" stroke-linecap="round"/>
</g>
</g>
<defs>
<clipPath id="clip0_169_2">
<rect width="241" height="343" fill="white"/>
</clipPath>
<clipPath id="clip1_169_2">
<rect width="25" height="18" fill="white" transform="translate(149 81)"/>
</clipPath>
<clipPath id="clip2_169_2">
<rect width="46" height="34" fill="white" transform="translate(187.619 80.6562) rotate(-167.556)"/>
</clipPath>
<clipPath id="clip3_169_2">
<rect width="46" height="34" fill="white" transform="translate(181.837 66.4448) rotate(-150)"/>
</clipPath>
</defs>
</svg>
