<svg width="403" height="520" viewBox="0 0 403 520" fill="none" xmlns="http://www.w3.org/2000/svg">
<g clip-path="url(#clip0_128_20)">
<rect x="2" width="403" height="499" rx="64" fill="#8B4203"/>
<rect x="287" y="486" width="79" height="34" rx="16" fill="#8B4203"/>
<rect x="53" y="486" width="79" height="34" rx="16" fill="#8B4203"/>
<rect x="58" y="59" width="286" height="378" rx="50" stroke="#602D00" stroke-width="8"/>
<g clip-path="url(#clip1_128_20)">
<circle cx="209.5" cy="157.5" r="62" fill="white" stroke="black"/>
<rect x="190.59" y="118.567" width="20" height="19" rx="6" transform="rotate(8.90064 190.59 118.567)" fill="#F9B674"/>
<rect x="204.94" y="116" width="20" height="19" rx="6" transform="rotate(8.90064 204.94 116)" fill="#F9B674"/>
<rect x="216.94" y="135" width="20" height="19" rx="6" transform="rotate(8.90064 216.94 135)" fill="#F9B674"/>
<rect x="193.94" y="143" width="20" height="19" rx="6" transform="rotate(8.90064 193.94 143)" fill="#F9B674"/>
<rect x="198.94" y="127" width="20" height="19" rx="6" transform="rotate(8.90064 198.94 127)" fill="#F9B674"/>
<rect x="236.94" y="143" width="20" height="19" rx="6" transform="rotate(8.90064 236.94 143)" fill="#F9B674"/>
<rect x="228.94" y="157" width="20" height="19" rx="6" transform="rotate(8.90064 228.94 157)" fill="#F9B674"/>
<rect x="213.94" y="170" width="20" height="19" rx="6" transform="rotate(8.90064 213.94 170)" fill="#F9B674"/>
<rect x="186.94" y="176" width="20" height="19" rx="6" transform="rotate(8.90064 186.94 176)" fill="#F9B674"/>
<rect x="167.94" y="162" width="20" height="19" rx="6" transform="rotate(8.90064 167.94 162)" fill="#F9B674"/>
<rect x="163.94" y="148" width="20" height="19" rx="6" transform="rotate(8.90064 163.94 148)" fill="#F9B674"/>
<rect x="167.94" y="132" width="20" height="19" rx="6" transform="rotate(8.90064 167.94 132)" fill="#F9B674"/>
<rect x="175.94" y="124" width="20" height="19" rx="6" transform="rotate(8.90064 175.94 124)" fill="#F9B674"/>
<rect x="181.94" y="135" width="20" height="19" rx="6" transform="rotate(8.90064 181.94 135)" fill="#F9B674"/>
<rect x="182.94" y="154" width="20" height="19" rx="6" transform="rotate(8.90064 182.94 154)" fill="#F9B674"/>
<rect x="196.94" y="165" width="20" height="19" rx="6" transform="rotate(8.90064 196.94 165)" fill="#F9B674"/>
<rect x="207.94" y="151" width="20" height="19" rx="6" transform="rotate(8.90064 207.94 151)" fill="#F9B674"/>
<rect x="202.94" y="138" width="20" height="19" rx="6" transform="rotate(8.90064 202.94 138)" fill="#F9B674"/>
<rect x="219.94" y="146" width="20" height="19" rx="6" transform="rotate(8.90064 219.94 146)" fill="#F9B674"/>
<rect x="216.94" y="162" width="20" height="19" rx="6" transform="rotate(8.90064 216.94 162)" fill="#F9B674"/>
<rect x="227.94" y="165" width="20" height="19" rx="6" transform="rotate(8.90064 227.94 165)" fill="#F9B674"/>
<rect x="227.94" y="130" width="20" height="19" rx="6" transform="rotate(8.90064 227.94 130)" fill="#F9B674"/>
<rect x="215.94" y="116" width="20" height="19" rx="6" transform="rotate(8.90064 215.94 116)" fill="#F9B674"/>
<rect x="199.94" y="156" width="20" height="19" rx="6" transform="rotate(8.90064 199.94 156)" fill="#F9B674"/>
<rect x="178.94" y="149" width="20" height="19" rx="6" transform="rotate(8.90064 178.94 149)" fill="#F9B674"/>
<rect x="173.94" y="174" width="20" height="19" rx="6" transform="rotate(8.90064 173.94 174)" fill="#F9B674"/>
<rect x="179.94" y="163" width="20" height="19" rx="6" transform="rotate(8.90064 179.94 163)" fill="#F9B674"/>
<rect x="200.94" y="182" width="20" height="19" rx="6" transform="rotate(8.90064 200.94 182)" fill="#F9B674"/>
<rect x="216.94" y="182" width="20" height="19" rx="6" transform="rotate(8.90064 216.94 182)" fill="#F9B674"/>
<rect x="226.94" y="173" width="20" height="19" rx="6" transform="rotate(8.90064 226.94 173)" fill="#F9B674"/>
<rect x="237.94" y="157" width="20" height="19" rx="6" transform="rotate(8.90064 237.94 157)" fill="#F9B674"/>
<rect x="229.94" y="124" width="20" height="19" rx="6" transform="rotate(8.90064 229.94 124)" fill="#F9B674"/>
<rect x="184.94" y="183" width="20" height="19" rx="6" transform="rotate(8.90064 184.94 183)" fill="#F9B674"/>
<rect x="184.94" y="113" width="20" height="19" rx="6" transform="rotate(8.90064 184.94 113)" fill="#F9B674"/>
<rect x="199.94" y="110" width="20" height="19" rx="6" transform="rotate(8.90064 199.94 110)" fill="#F9B674"/>
<rect x="196.94" y="187" width="20" height="19" rx="6" transform="rotate(8.90064 196.94 187)" fill="#F9B674"/>
<rect x="210.94" y="187" width="20" height="19" rx="6" transform="rotate(8.90064 210.94 187)" fill="#F9B674"/>
</g>
<g clip-path="url(#clip2_128_20)">
<circle cx="210.5" cy="322.5" r="62" fill="white" stroke="black"/>
<rect x="191.59" y="283.567" width="20" height="19" rx="6" transform="rotate(8.90064 191.59 283.567)" fill="#F9B674"/>
<rect x="205.94" y="281" width="20" height="19" rx="6" transform="rotate(8.90064 205.94 281)" fill="#F9B674"/>
<rect x="217.94" y="300" width="20" height="19" rx="6" transform="rotate(8.90064 217.94 300)" fill="#F9B674"/>
<rect x="194.94" y="308" width="20" height="19" rx="6" transform="rotate(8.90064 194.94 308)" fill="#F9B674"/>
<rect x="199.94" y="292" width="20" height="19" rx="6" transform="rotate(8.90064 199.94 292)" fill="#F9B674"/>
<rect x="237.94" y="308" width="20" height="19" rx="6" transform="rotate(8.90064 237.94 308)" fill="#F9B674"/>
<rect x="229.94" y="322" width="20" height="19" rx="6" transform="rotate(8.90064 229.94 322)" fill="#F9B674"/>
<rect x="214.94" y="335" width="20" height="19" rx="6" transform="rotate(8.90064 214.94 335)" fill="#F9B674"/>
<rect x="187.94" y="341" width="20" height="19" rx="6" transform="rotate(8.90064 187.94 341)" fill="#F9B674"/>
<rect x="168.94" y="327" width="20" height="19" rx="6" transform="rotate(8.90064 168.94 327)" fill="#F9B674"/>
<rect x="164.94" y="313" width="20" height="19" rx="6" transform="rotate(8.90064 164.94 313)" fill="#F9B674"/>
<rect x="168.94" y="297" width="20" height="19" rx="6" transform="rotate(8.90064 168.94 297)" fill="#F9B674"/>
<rect x="176.94" y="289" width="20" height="19" rx="6" transform="rotate(8.90064 176.94 289)" fill="#F9B674"/>
<rect x="182.94" y="300" width="20" height="19" rx="6" transform="rotate(8.90064 182.94 300)" fill="#F9B674"/>
<rect x="183.94" y="319" width="20" height="19" rx="6" transform="rotate(8.90064 183.94 319)" fill="#F9B674"/>
<rect x="197.94" y="330" width="20" height="19" rx="6" transform="rotate(8.90064 197.94 330)" fill="#F9B674"/>
<rect x="208.94" y="316" width="20" height="19" rx="6" transform="rotate(8.90064 208.94 316)" fill="#F9B674"/>
<rect x="203.94" y="303" width="20" height="19" rx="6" transform="rotate(8.90064 203.94 303)" fill="#F9B674"/>
<rect x="220.94" y="311" width="20" height="19" rx="6" transform="rotate(8.90064 220.94 311)" fill="#F9B674"/>
<rect x="217.94" y="327" width="20" height="19" rx="6" transform="rotate(8.90064 217.94 327)" fill="#F9B674"/>
<rect x="228.94" y="330" width="20" height="19" rx="6" transform="rotate(8.90064 228.94 330)" fill="#F9B674"/>
<rect x="228.94" y="295" width="20" height="19" rx="6" transform="rotate(8.90064 228.94 295)" fill="#F9B674"/>
<rect x="216.94" y="281" width="20" height="19" rx="6" transform="rotate(8.90064 216.94 281)" fill="#F9B674"/>
<rect x="200.94" y="321" width="20" height="19" rx="6" transform="rotate(8.90064 200.94 321)" fill="#F9B674"/>
<rect x="179.94" y="314" width="20" height="19" rx="6" transform="rotate(8.90064 179.94 314)" fill="#F9B674"/>
<rect x="174.94" y="339" width="20" height="19" rx="6" transform="rotate(8.90064 174.94 339)" fill="#F9B674"/>
<rect x="180.94" y="328" width="20" height="19" rx="6" transform="rotate(8.90064 180.94 328)" fill="#F9B674"/>
<rect x="201.94" y="347" width="20" height="19" rx="6" transform="rotate(8.90064 201.94 347)" fill="#F9B674"/>
<rect x="217.94" y="347" width="20" height="19" rx="6" transform="rotate(8.90064 217.94 347)" fill="#F9B674"/>
<rect x="227.94" y="338" width="20" height="19" rx="6" transform="rotate(8.90064 227.94 338)" fill="#F9B674"/>
<rect x="238.94" y="322" width="20" height="19" rx="6" transform="rotate(8.90064 238.94 322)" fill="#F9B674"/>
<rect x="230.94" y="289" width="20" height="19" rx="6" transform="rotate(8.90064 230.94 289)" fill="#F9B674"/>
<rect x="185.94" y="348" width="20" height="19" rx="6" transform="rotate(8.90064 185.94 348)" fill="#F9B674"/>
<rect x="185.94" y="278" width="20" height="19" rx="6" transform="rotate(8.90064 185.94 278)" fill="#F9B674"/>
<rect x="200.94" y="275" width="20" height="19" rx="6" transform="rotate(8.90064 200.94 275)" fill="#F9B674"/>
<rect x="197.94" y="352" width="20" height="19" rx="6" transform="rotate(8.90064 197.94 352)" fill="#F9B674"/>
<rect x="211.94" y="352" width="20" height="19" rx="6" transform="rotate(8.90064 211.94 352)" fill="#F9B674"/>
</g>
<rect x="183" y="37" width="45" height="45" rx="22.5" fill="white"/>
<circle cx="205" cy="59" r="17" fill="#CF6100"/>
<rect x="49" y="147" width="45" height="45" rx="22.5" fill="white"/>
<circle cx="71" cy="169" r="17" fill="#CF6100"/>
<rect x="49" y="276" width="45" height="45" rx="22.5" fill="white"/>
<circle cx="71" cy="298" r="17" fill="#CF6100"/>
<rect x="187" y="401" width="45" height="45" rx="22.5" fill="white"/>
<circle cx="209" cy="423" r="17" fill="#CF6100"/>
<g clip-path="url(#clip3_128_20)">
<rect width="46" height="34" transform="translate(31.9434 389.73) rotate(-17.5562)" fill="white"/>
<path d="M70.7456 381.149C70.9822 381.896 73.2337 389.013 76.6441 399.359C77.9249 402.974 78.2925 403.269 78.5182 403.752C78.7438 404.236 78.8164 404.898 78.6329 406.078" stroke="black" stroke-width="2" stroke-linecap="round"/>
<path d="M70.7456 381.149C70.9822 381.896 73.2337 389.013 76.6441 399.359C77.9249 402.974 78.2925 403.269 78.5182 403.752C78.7438 404.236 78.8164 404.898 78.6329 406.078" stroke="black" stroke-width="2" stroke-linecap="round"/>
<path d="M65.9387 383.17C66.1753 383.918 68.4268 391.034 71.8372 401.38C73.118 404.995 73.4857 405.29 73.7113 405.773C73.9369 406.257 74.0095 406.919 73.826 408.099" stroke="black" stroke-width="2" stroke-linecap="round"/>
<path d="M59.8458 385.097C60.081 385.841 62.3198 392.917 65.7915 403.179C67.1457 406.748 67.6725 406.991 67.9396 407.458C68.2067 407.925 68.1982 408.609 67.6885 409.886" stroke="black" stroke-width="2" stroke-linecap="round"/>
<path d="M54.1252 386.907C54.3605 387.651 56.5993 394.727 60.071 404.989C61.4252 408.558 61.952 408.801 62.2191 409.268C62.4862 409.735 62.4777 410.419 61.9679 411.696" stroke="black" stroke-width="2" stroke-linecap="round"/>
<path d="M48.4047 388.717C48.64 389.461 50.8787 396.537 54.3505 406.799C55.7047 410.368 56.2314 410.61 56.4985 411.078C56.7657 411.545 56.7572 412.229 56.2474 413.506" stroke="black" stroke-width="2" stroke-linecap="round"/>
<path d="M41.7308 390.829C41.9661 391.572 44.2048 398.648 47.6765 408.91C49.0307 412.48 49.5575 412.722 49.8246 413.189C50.0917 413.656 50.0832 414.341 49.5735 415.617" stroke="black" stroke-width="2" stroke-linecap="round"/>
</g>
<rect width="46" height="34" transform="translate(44.0566 399.146)" fill="white"/>
<path d="M83.6398 402.669C83.6398 403.453 83.6398 410.917 83.7705 421.81C83.9012 425.643 84.1627 426.036 84.2321 426.564C84.3014 427.093 84.1706 427.747 83.6398 428.817" stroke="black" stroke-width="2" stroke-linecap="round"/>
<path d="M83.6398 402.669C83.6398 403.453 83.6398 410.917 83.7705 421.81C83.9012 425.643 84.1627 426.035 84.2321 426.564C84.3014 427.093 84.1706 427.747 83.6398 428.817" stroke="black" stroke-width="2" stroke-linecap="round"/>
<path d="M78.4472 403.146C78.4472 403.93 78.4472 411.394 78.5779 422.287C78.7087 426.12 78.9702 426.512 79.0395 427.041C79.1088 427.57 78.9781 428.224 78.4472 429.294" stroke="black" stroke-width="2" stroke-linecap="round"/>
<path d="M72.0566 403.146C72.0566 403.926 72.0566 411.348 72.2711 422.179C72.4857 425.99 72.9148 426.38 73.0285 426.906C73.1423 427.432 72.9278 428.082 72.0566 429.146" stroke="black" stroke-width="2" stroke-linecap="round"/>
<path d="M66.0566 403.146C66.0566 403.926 66.0566 411.348 66.2711 422.179C66.4857 425.99 66.9148 426.38 67.0285 426.906C67.1423 427.432 66.9278 428.082 66.0566 429.146" stroke="black" stroke-width="2" stroke-linecap="round"/>
<path d="M60.0566 403.146C60.0566 403.926 60.0566 411.348 60.2711 422.179C60.4857 425.99 60.9148 426.38 61.0285 426.906C61.1423 427.432 60.9278 428.082 60.0566 429.146" stroke="black" stroke-width="2" stroke-linecap="round"/>
<path d="M53.0566 403.146C53.0566 403.926 53.0566 411.348 53.2711 422.179C53.4857 425.99 53.9148 426.38 54.0285 426.906C54.1423 427.432 53.9278 428.082 53.0566 429.146" stroke="black" stroke-width="2" stroke-linecap="round"/>
</g>
<defs>
<clipPath id="clip0_128_20">
<rect width="403" height="520" fill="white"/>
</clipPath>
<clipPath id="clip1_128_20">
<rect width="125" height="125" fill="white" transform="translate(147 95)"/>
</clipPath>
<clipPath id="clip2_128_20">
<rect width="125" height="125" fill="white" transform="translate(148 260)"/>
</clipPath>
<clipPath id="clip3_128_20">
<rect width="46" height="34" fill="white" transform="translate(31.9434 389.73) rotate(-17.5562)"/>
</clipPath>
</defs>
</svg>
