<svg width="1208" height="451" viewBox="0 0 1208 451" fill="none" xmlns="http://www.w3.org/2000/svg">
<g clip-path="url(#clip0_62_16)">
<mask id="mask0_62_16" style="mask-type:luminance" maskUnits="userSpaceOnUse" x="0" y="0" width="437" height="437">
<path d="M437 0H0V437H437V0Z" fill="white"/>
</mask>
<g mask="url(#mask0_62_16)">
<path d="M218.5 437C339.174 437 437 339.174 437 218.5C437 97.8258 339.174 0 218.5 0C97.8258 0 0 97.8258 0 218.5C0 339.174 97.8258 437 218.5 437Z" fill="#4F46E5"/>
<path d="M218.073 174.971C237.164 174.971 252.641 159.494 252.641 140.403C252.641 121.312 237.164 105.836 218.073 105.836C198.982 105.836 183.506 121.312 183.506 140.403C183.506 159.494 198.982 174.971 218.073 174.971Z" fill="white"/>
<path d="M218.073 331.164C237.164 331.164 252.641 315.688 252.641 296.597C252.641 277.506 237.164 262.029 218.073 262.029C198.982 262.029 183.506 277.506 183.506 296.597C183.506 315.688 198.982 331.164 218.073 331.164Z" fill="white"/>
<path d="M326.896 195.455H109.25C101.708 195.455 95.5938 201.569 95.5938 209.111V227.889C95.5938 235.431 101.708 241.545 109.25 241.545H326.896C334.439 241.545 340.553 235.431 340.553 227.889V209.111C340.553 201.569 334.439 195.455 326.896 195.455Z" fill="white"/>
</g>
</g>
<g clip-path="url(#clip1_62_16)">
<path d="M607.5 77C689.514 77 756 143.486 756 225.5C756 307.514 689.514 374 607.5 374C525.486 374 459 307.514 459 225.5C459 143.486 525.486 77 607.5 77ZM607.5 145C563.041 145 527 181.041 527 225.5C527 269.959 563.041 306 607.5 306C651.959 306 688 269.959 688 225.5C688 181.041 651.959 145 607.5 145Z" fill="black"/>
<path d="M1038.5 77C1120.51 77.0001 1187 143.486 1187 225.5C1187 307.514 1120.51 374 1038.5 374C956.486 374 890 307.514 890 225.5C890 143.486 956.486 77 1038.5 77ZM1038.5 145C994.041 145 958 181.041 958 225.5C958 269.959 994.041 306 1038.5 306C1082.96 306 1119 269.959 1119 225.5C1119 181.041 1082.96 145 1038.5 145Z" fill="black"/>
<path d="M1038 306H1140C1177.56 306 1208 336.445 1208 374H1038V306Z" fill="black"/>
<path d="M780 77H866V374H780V77Z" fill="black"/>
</g>
<defs>
<clipPath id="clip0_62_16">
<rect width="437" height="437" fill="white"/>
</clipPath>
<clipPath id="clip1_62_16">
<rect width="749" height="297" fill="white" transform="translate(459 77)"/>
</clipPath>
</defs>
</svg>
