<svg width="64" height="64" viewBox="0 0 64 64" fill="none" xmlns="http://www.w3.org/2000/svg">
<g clip-path="url(#clip0_280_10)">
<rect width="64" height="64" rx="16" fill="url(#paint0_linear_280_10)"/>
<path d="M51.2188 32.0625C51.2188 33.9583 51 35.7917 50.5625 37.5625C50.125 39.3125 49.4896 40.9583 48.6562 42.5C47.8438 44.0417 46.8438 45.4583 45.6562 46.75C44.4896 48.0208 43.1667 49.1146 41.6875 50.0312C40.2292 50.9479 38.6354 51.6667 36.9062 52.1875C35.1771 52.6875 33.3438 52.9375 31.4062 52.9375C29.5312 52.9375 27.7396 52.6979 26.0312 52.2188C24.3438 51.7396 22.7604 51.0729 21.2812 50.2188C19.8021 49.3438 18.4583 48.3021 17.25 47.0938C16.0625 45.8646 15.0417 44.5104 14.1875 43.0312C13.3542 41.5312 12.6979 39.9271 12.2188 38.2188C11.7604 36.5104 11.5312 34.7292 11.5312 32.875C11.5312 31.0625 11.75 29.2917 12.1875 27.5625C12.625 25.8125 13.25 24.1667 14.0625 22.625C14.8958 21.0833 15.8958 19.6667 17.0625 18.375C18.2292 17.0833 19.5312 15.9688 20.9688 15.0312C22.4271 14.0938 24 13.3646 25.6875 12.8438C27.375 12.3229 29.1562 12.0625 31.0312 12.0625C34.0521 12.0625 36.8021 12.5312 39.2812 13.4688C41.7812 14.4062 43.9062 15.75 45.6562 17.5C47.4271 19.2292 48.7917 21.3333 49.75 23.8125C50.7292 26.2708 51.2188 29.0208 51.2188 32.0625ZM37.3438 32.875C37.3438 31.9792 37.2083 31.1146 36.9375 30.2812C36.6875 29.4271 36.3125 28.6771 35.8125 28.0312C35.3125 27.3646 34.6875 26.8333 33.9375 26.4375C33.2083 26.0208 32.3646 25.8125 31.4062 25.8125C30.4271 25.8125 29.5521 25.9896 28.7812 26.3438C28.0104 26.6979 27.3438 27.1875 26.7812 27.8125C26.2396 28.4167 25.8229 29.1354 25.5312 29.9688C25.2396 30.7812 25.0938 31.6458 25.0938 32.5625C25.0938 33.4375 25.2188 34.3125 25.4688 35.1875C25.7188 36.0625 26.0938 36.8542 26.5938 37.5625C27.0938 38.2708 27.7083 38.8438 28.4375 39.2812C29.1875 39.7188 30.0521 39.9375 31.0312 39.9375C32.0104 39.9375 32.8854 39.75 33.6562 39.375C34.4479 38.9792 35.1146 38.4583 35.6562 37.8125C36.1979 37.1458 36.6146 36.3854 36.9062 35.5312C37.1979 34.6771 37.3438 33.7917 37.3438 32.875Z" fill="white"/>
</g>
<defs>
<linearGradient id="paint0_linear_280_10" x1="32" y1="0" x2="32" y2="64" gradientUnits="userSpaceOnUse">
<stop stop-color="#4F46E5"/>
<stop offset="0.5" stop-color="#4338CA"/>
<stop offset="1" stop-color="#3730A3"/>
</linearGradient>
<clipPath id="clip0_280_10">
<rect width="64" height="64" rx="16" fill="white"/>
</clipPath>
</defs>
</svg>
