<svg width="749" height="297" viewBox="0 0 749 297" fill="none" xmlns="http://www.w3.org/2000/svg">
<g clip-path="url(#clip0_62_28)">
<path d="M148.5 0C230.514 0 297 66.4857 297 148.5C297 230.514 230.514 297 148.5 297C66.4857 297 0 230.514 0 148.5C1.64932e-05 66.4857 66.4857 1.64975e-05 148.5 0ZM148.5 68C104.041 68 68 104.041 68 148.5C68 192.959 104.041 229 148.5 229C192.959 229 229 192.959 229 148.5C229 104.041 192.959 68 148.5 68Z" fill="black"/>
<path d="M579.5 0C661.514 6.03677e-05 728 66.4857 728 148.5C728 230.514 661.514 297 579.5 297C497.486 297 431 230.514 431 148.5C431 66.4857 497.486 0 579.5 0ZM579.5 68C535.041 68 499 104.041 499 148.5C499 192.959 535.041 229 579.5 229C623.959 229 660 192.959 660 148.5C660 104.041 623.959 68 579.5 68Z" fill="black"/>
<path d="M579 229H681C718.555 229 749 259.445 749 297H579V229Z" fill="black"/>
<rect x="321" width="86" height="297" rx="20" fill="black"/>
</g>
<defs>
<clipPath id="clip0_62_28">
<rect width="749" height="297" fill="white"/>
</clipPath>
</defs>
</svg>
