<svg width="470" height="230" viewBox="0 0 470 230" fill="none" xmlns="http://www.w3.org/2000/svg">
<g clip-path="url(#clip0_88_2)">
<path d="M181.613 94.9072C181.613 103.468 180.625 111.747 178.649 119.743C176.674 127.646 173.805 135.077 170.042 142.039C166.373 149.001 161.857 155.398 156.495 161.23C151.226 166.969 145.253 171.908 138.573 176.047C131.988 180.187 124.791 183.432 116.983 185.784C109.175 188.042 100.896 189.171 92.147 189.171C83.6802 189.171 75.5897 188.089 67.8755 185.925C60.2554 183.762 53.1056 180.751 46.4263 176.894C39.7469 172.943 33.679 168.239 28.2227 162.783C22.8604 157.232 18.2507 151.117 14.3936 144.438C10.6305 137.665 7.66715 130.421 5.50342 122.707C3.43376 114.992 2.39893 106.949 2.39893 98.5762C2.39893 90.3916 3.38672 82.3952 5.3623 74.5869C7.33789 66.6846 10.1602 59.2526 13.8291 52.291C17.5921 45.3294 22.1077 38.9323 27.376 33.0996C32.6442 27.2669 38.5239 22.2339 45.0151 18.0005C51.6004 13.7671 58.7031 10.4744 66.3232 8.12256C73.9434 5.77067 81.9868 4.59473 90.4536 4.59473C104.095 4.59473 116.513 6.71143 127.708 10.9448C138.997 15.1782 148.592 21.2461 156.495 29.1484C164.491 36.9567 170.653 46.4583 174.98 57.6533C179.402 68.7542 181.613 81.1722 181.613 94.9072ZM118.958 98.5762C118.958 94.5309 118.347 90.6268 117.124 86.8638C115.995 83.0067 114.302 79.62 112.044 76.7036C109.786 73.6932 106.964 71.2943 103.577 69.5068C100.285 67.6253 96.4744 66.6846 92.147 66.6846C87.7254 66.6846 83.7743 67.4842 80.2935 69.0835C76.8127 70.6828 73.8022 72.8936 71.2622 75.7158C68.8162 78.444 66.9347 81.6896 65.6177 85.4526C64.3006 89.1216 63.6421 93.0257 63.6421 97.165C63.6421 101.116 64.2065 105.067 65.3354 109.019C66.4644 112.97 68.1577 116.545 70.4155 119.743C72.6733 122.942 75.4486 125.529 78.7412 127.504C82.1279 129.48 86.0321 130.468 90.4536 130.468C94.8752 130.468 98.8263 129.621 102.307 127.928C105.882 126.14 108.892 123.788 111.338 120.872C113.784 117.862 115.666 114.428 116.983 110.571C118.3 106.714 118.958 102.715 118.958 98.5762ZM265.152 4.3125L255.274 196.509L195.724 199.613L190.08 8.26367L265.152 4.3125ZM466.379 98.0117C466.379 112.311 463.698 125.952 458.336 138.935C453.068 151.917 445.118 163.3 434.488 173.084L453.961 196.227L402.314 229.529L390.178 196.227C386.603 196.979 382.981 197.544 379.312 197.92C375.738 198.296 372.116 198.484 368.447 198.484C359.416 198.484 350.761 197.355 342.482 195.098C334.203 192.84 326.442 189.688 319.198 185.643C311.954 181.504 305.369 176.518 299.442 170.685C293.516 164.852 288.389 158.361 284.061 151.211C279.828 144.062 276.535 136.347 274.183 128.069C271.925 119.696 270.796 110.994 270.796 101.963C270.796 93.0257 271.878 84.3708 274.042 75.998C276.3 67.5312 279.451 59.5819 283.497 52.1499C287.636 44.7179 292.575 37.9445 298.313 31.8296C304.146 25.6206 310.637 20.3053 317.787 15.8838C324.937 11.3682 332.651 7.88737 340.93 5.44141C349.208 2.99544 357.91 1.77246 367.036 1.77246C381.617 1.77246 394.976 3.98324 407.112 8.40479C419.342 12.8263 429.831 19.1764 438.58 27.4551C447.329 35.7337 454.15 45.8468 459.042 57.7944C463.933 69.6479 466.379 83.0537 466.379 98.0117ZM397.798 101.963C397.798 97.6354 397.14 93.4491 395.823 89.4038C394.6 85.2645 392.765 81.6426 390.319 78.5381C387.873 75.3395 384.816 72.7995 381.147 70.918C377.478 69.0365 373.245 68.0957 368.447 68.0957C363.743 68.0957 359.51 68.9424 355.747 70.6357C351.984 72.235 348.738 74.4928 346.01 77.4092C343.376 80.3255 341.306 83.7593 339.801 87.7104C338.39 91.6616 337.684 95.9421 337.684 100.552C337.684 104.879 338.296 109.16 339.519 113.393C340.836 117.532 342.717 121.295 345.163 124.682C347.609 127.975 350.667 130.656 354.335 132.726C358.004 134.795 362.238 135.83 367.036 135.83C371.645 135.83 375.832 134.936 379.595 133.149C383.452 131.267 386.697 128.774 389.332 125.67C392.06 122.565 394.129 118.991 395.541 114.945C397.046 110.806 397.798 106.479 397.798 101.963Z" fill="#4F46E5"/>
</g>
<defs>
<clipPath id="clip0_88_2">
<rect width="470" height="230" fill="white"/>
</clipPath>
</defs>
</svg>
