<svg width="1080" height="1391" viewBox="0 0 1080 1391" fill="none" xmlns="http://www.w3.org/2000/svg">
<rect width="1080" height="1391" fill="url(#paint0_linear_281_2)"/>
<g clip-path="url(#clip0_281_2)">
<mask id="mask0_281_2" style="mask-type:luminance" maskUnits="userSpaceOnUse" x="258" y="558" width="563" height="275">
<path d="M821 558H258V833H821V558Z" fill="white"/>
</mask>
<g mask="url(#mask0_281_2)">
<path d="M475.549 671.476C475.549 681.712 474.366 691.611 471.999 701.171C469.633 710.62 466.196 719.505 461.689 727.829C457.294 736.153 451.884 743.802 445.461 750.775C439.149 757.637 431.995 763.542 423.993 768.491C416.105 773.441 407.484 777.321 398.131 780.133C388.778 782.833 378.861 784.183 368.38 784.183C358.238 784.183 348.547 782.889 339.306 780.302C330.178 777.715 321.614 774.115 313.613 769.504C305.612 764.78 298.343 759.155 291.807 752.632C285.384 745.995 279.862 738.683 275.242 730.698C270.734 722.599 267.184 713.938 264.592 704.715C262.113 695.49 260.874 685.874 260.874 675.863C260.874 666.077 262.057 656.516 264.423 647.18C266.79 637.732 270.171 628.846 274.566 620.522C279.073 612.198 284.482 604.55 290.793 597.576C297.104 590.602 304.147 584.584 311.922 579.522C319.811 574.461 328.319 570.524 337.447 567.712C346.575 564.9 356.21 563.494 366.352 563.494C382.693 563.494 397.568 566.025 410.978 571.086C424.501 576.148 435.994 583.403 445.461 592.851C455.039 602.187 462.421 613.548 467.604 626.933C472.901 640.206 475.549 655.054 475.549 671.476ZM400.497 675.863C400.497 671.026 399.765 666.358 398.3 661.859C396.947 657.247 394.919 653.198 392.214 649.711C389.51 646.111 386.129 643.243 382.072 641.106C378.129 638.856 373.564 637.732 368.38 637.732C363.084 637.732 358.351 638.688 354.181 640.6C350.012 642.512 346.406 645.155 343.363 648.53C340.433 651.792 338.179 655.672 336.602 660.172C335.024 664.558 334.235 669.226 334.235 674.176C334.235 678.9 334.911 683.624 336.264 688.349C337.616 693.073 339.644 697.347 342.349 701.171C345.053 704.996 348.378 708.089 352.322 710.45C356.379 712.813 361.056 713.994 366.352 713.994C371.648 713.994 376.381 712.982 380.551 710.957C384.833 708.82 388.439 706.007 391.369 702.521C394.299 698.922 396.553 694.816 398.131 690.204C399.708 685.593 400.497 680.811 400.497 675.863ZM575.618 563.156L563.786 792.956L492.452 796.668L485.692 567.88L575.618 563.156ZM816.663 675.188C816.663 692.285 813.451 708.595 807.028 724.118C800.718 739.64 791.195 753.25 778.461 764.948L801.787 792.619L739.921 832.437L725.383 792.619C721.101 793.518 716.762 794.194 712.367 794.643C708.086 795.093 703.747 795.318 699.352 795.318C688.535 795.318 678.167 793.968 668.25 791.269C658.333 788.57 649.036 784.801 640.358 779.964C631.681 775.016 623.793 769.054 616.693 762.08C609.595 755.106 603.453 747.345 598.269 738.796C593.198 730.248 589.254 721.024 586.436 711.126C583.731 701.115 582.379 690.71 582.379 679.912C582.379 669.226 583.675 658.878 586.267 648.867C588.972 638.744 592.747 629.239 597.593 620.353C602.551 611.467 608.468 603.368 615.341 596.057C622.328 588.633 630.103 582.278 638.668 576.992C647.233 571.592 656.473 567.431 666.391 564.506C676.307 561.582 686.731 560.119 697.662 560.119C715.128 560.119 731.131 562.763 745.668 568.049C760.318 573.336 772.883 580.928 783.363 590.827C793.843 600.725 802.014 612.817 807.874 627.102C813.733 641.275 816.663 657.303 816.663 675.188ZM734.511 679.912C734.511 674.738 733.723 669.733 732.145 664.896C730.68 659.947 728.482 655.616 725.552 651.904C722.622 648.08 718.96 645.043 714.565 642.793C710.171 640.544 705.1 639.419 699.352 639.419C693.718 639.419 688.647 640.431 684.14 642.456C679.632 644.368 675.744 647.067 672.476 650.554C669.321 654.041 666.841 658.147 665.038 662.871C663.348 667.595 662.502 672.713 662.502 678.225C662.502 683.399 663.235 688.517 664.7 693.579C666.278 698.527 668.531 703.027 671.461 707.076C674.391 711.014 678.054 714.219 682.448 716.694C686.843 719.168 691.915 720.405 697.662 720.405C703.183 720.405 708.199 719.337 712.706 717.2C717.327 714.95 721.214 711.969 724.37 708.258C727.638 704.545 730.116 700.272 731.808 695.434C733.61 690.485 734.511 685.312 734.511 679.912Z" fill="white"/>
</g>
</g>
<defs>
<linearGradient id="paint0_linear_281_2" x1="540" y1="0" x2="540" y2="1391" gradientUnits="userSpaceOnUse">
<stop stop-color="#4F46E5"/>
<stop offset="0.5" stop-color="#4338CA"/>
<stop offset="1" stop-color="#3730A3"/>
</linearGradient>
<clipPath id="clip0_281_2">
<rect width="563" height="275" fill="white" transform="translate(258 558)"/>
</clipPath>
</defs>
</svg>
